# xmcd
#
# Track frame offsets:
#	150
#	13293
#	25412
#	39459
#	52525
#	65831
#	76036
#	89002
#	102492
#	115282
#	128209
#	140905
#	152020
#	162375
#	173472
#	184686
#	195493
#	206428
#	218982
#	231594
#	246999
#	256902
#	269749
#	281393
#
# Disc length: 3927 seconds
#
# Revision: 0
# Processed by: cddbd v1.5.2PL0 Copyright (c) Steve Scherf et al.
# Submitted via: audiograbber 1.83.01
#
DISCID=610f5518
DTITLE=Howlin' Wolf - Moanin' In The Moonlight and Howlin´ Wolf
DYEAR=2015
DGENRE=Blues
TTITLE0=Moanin' At Midnight
TTITLE1=How Many More Years
TTITLE2=Smokestack Lightnin'
TTITLE3=Baby How Long
TTITLE4=No Place To Go
TTITLE5=All Night Boogie
TTITLE6=Evil
TTITLE7=I'm Leavin' You
TTITLE8=Moanin' For My Baby
TTITLE9=I Asked For Water (She Gave Me Gasoline)
TTITLE10=Forty Four
TTITLE11=Somebody In My Home
TTITLE12=Shake For Me
TTITLE13=The Red Rooster
TTITLE14=You'll Be Mine
TTITLE15=Who's Been Takin'
TTITLE16=Wang Dang Doodle
TTITLE17=Little Baby
TTITLE18=Spoonful
TTITLE19=Going Down Slow
TTITLE20=Down In The Bottom
TTITLE21=Back Door Man
TTITLE22=Howlin' For My Baby
TTITLE23=Tell Me
EXTD=
EXTT0=
EXTT1=
EXTT2=
EXTT3=
EXTT4=
EXTT5=
EXTT6=
EXTT7=
EXTT8=
EXTT9=
EXTT10=
EXTT11=
EXTT12=
EXTT13=
EXTT14=
EXTT15=
EXTT16=
EXTT17=
EXTT18=
EXTT19=
EXTT20=
EXTT21=
EXTT22=
EXTT23=
PLAYORDER=
